<svg class="Logo" xmlns="http://www.w3.org/2000/svg" viewBox="0 0 689.35 109.2" style="background-color:white">
  <g fill-rule="evenodd">
    <path d="M644.06 18.24a7.93 7.93 0 00-.28 15.84h19.77a26.16 26.16 0 01.12 52.32H624a2.48 2.48 0 01-2.32-1.84l-5.76-14.08a1.59 1.59 0 011.36-2.32h46.4a7.92 7.92 0 000-15.84h-19.57a26 26 0 01-25.8-26.16A26 26 0 01644.11 0h41c1.26 0 2.28.83 1.85 1.84l-6.25 14.56a2.79 2.79 0 01-2.33 1.84h-34.32M368.2 34.08l-21.8 49.44c-.72 1.59-1.1 2.87-2.68 2.87h-14.4c-2.07 0-3.21-.57-2.2-2.87l35.21-80.94c.72-1.35 1.17-2.34 2.75-2.34h6.24c1.58 0 2 1 2.75 2.34l35.21 81c1 2.3-.14 2.87-2.2 2.87h-14.4c-1.59 0-2-1.28-2.68-2.87l-21.8-49.5M475.91 86.4a1.84 1.84 0 01-1.84-1.84V1.84A1.84 1.84 0 01475.91 0h14.55a1.85 1.85 0 011.85 1.84v66.32h37a1.58 1.58 0 011.37 2.32l-6 14.08a2.6 2.6 0 01-2.57 1.84h-46.2M424.15 18.24H401a1.84 1.84 0 01-1.84-1.84V1.84A1.84 1.84 0 01401 0h64.5a1.85 1.85 0 011.85 1.84V16.4a1.85 1.85 0 01-1.85 1.84h-23.11v66.32a1.85 1.85 0 01-1.85 1.84H426a1.84 1.84 0 01-1.84-1.84V18.24M573.09 34.08l-21.8 49.44c-.72 1.59-1.1 2.87-2.68 2.87h-14.4c-2.07 0-3.21-.57-2.2-2.87l35.21-80.94c.72-1.35 1.16-2.34 2.75-2.34h6.23c1.59 0 2 1 2.76 2.34l35.21 81c1 2.3-.14 2.87-2.2 2.87h-14.4c-1.59 0-2-1.28-2.68-2.87l-21.8-49.44M224.39 0h38.72c15 0 27.12 12.53 27.12 28a28 28 0 01-16.64 25.79l20 29.78c.48 2.3-.86 2.87-2.92 2.87h-15.14c-1.59 0-2.2-1.52-3.16-2.87l-19.1-27.6h-12.48v28.59a1.85 1.85 0 01-1.85 1.84h-14.55a1.84 1.84 0 01-1.84-1.84V1.84A1.84 1.84 0 01224.39 0zm38.72 18.24h-22.32v19.44h22.32a9.68 9.68 0 000-19.36zM175.53 34.08l-21.8 49.44c-.72 1.59-1.09 2.87-2.68 2.87h-14.4c-2.06 0-3.2-.57-2.2-2.87l35.22-80.94c.72-1.35 1.16-2.34 2.75-2.34h6.23c1.59 0 2 1 2.75 2.34l35.22 81c1 2.3-.14 2.87-2.21 2.87H200c-1.58 0-1.95-1.28-2.67-2.87l-21.8-49.5M99.43 18.24h-26c-1.26 0-2.06-.83-1.44-2.32l6.08-14.08c.3-.72 1.06-1.84 2.08-1.84h60.63a1.85 1.85 0 011.85 1.84V16.4a1.85 1.85 0 01-1.85 1.84h-23.11v66.32a1.85 1.85 0 01-1.85 1.84h-14.55a1.84 1.84 0 01-1.84-1.84V18.24" fill="#17181d"></path>
    <path d="M27.5 18.24a7.93 7.93 0 00-.28 15.84H47a26.16 26.16 0 01.12 52.32H1.91c-1.26 0-2.17-1.07-1.84-1.84l6-14.56a2.5 2.5 0 012.08-1.84h39a7.92 7.92 0 000-15.84h-19.6a26 26 0 01-25.8-26.16A26 26 0 0127.55 0h42c1 0 2 .71 1.61 1.84L64.87 16.4a2.47 2.47 0 01-2.33 1.84h-35" fill="#17181D"></path>
    <path fill="#17181D" d="M368.23 109.2l-14.4-28.8h28.32l-13.92 28.8"></path>
  </g>
</svg>