<svg width="162" height="48" viewBox="0 0 162 48" fill="none" xmlns="http://www.w3.org/2000/svg">
<path d="M29.3008 9.96352C29.6015 8.97309 30.1158 8.07562 30.7901 7.32472C28.6948 6.47063 26.4024 6 24 6C14.0589 6 6 14.0589 6 24C6 26.4024 6.47063 28.6948 7.32472 30.7901C8.07562 30.1158 8.97309 29.6015 9.96352 29.3008C9.34079 27.6527 9 25.8662 9 24C9 15.7157 15.7157 9 24 9C25.8662 9 27.6527 9.34078 29.3008 9.96352Z" fill="white"/>
<path fill-rule="evenodd" clip-rule="evenodd" d="M41 12C41 14.7614 38.7614 17 36 17C33.2386 17 31 14.7614 31 12C31 9.23858 33.2386 7 36 7C38.7614 7 41 9.23858 41 12ZM36 14C37.1046 14 38 13.1046 38 12C38 10.8954 37.1046 10 36 10C34.8954 10 34 10.8954 34 12C34 13.1046 34.8954 14 36 14Z" fill="white"/>
<path fill-rule="evenodd" clip-rule="evenodd" d="M30 24C30 27.3137 27.3137 30 24 30C20.6863 30 18 27.3137 18 24C18 20.6863 20.6863 18 24 18C27.3137 18 30 20.6863 30 24ZM24 27C25.6569 27 27 25.6569 27 24C27 22.3431 25.6569 21 24 21C22.3431 21 21 22.3431 21 24C21 25.6569 22.3431 27 24 27Z" fill="white"/>
<path fill-rule="evenodd" clip-rule="evenodd" d="M12 41C14.7614 41 17 38.7614 17 36C17 33.2386 14.7614 31 12 31C9.23858 31 7 33.2386 7 36C7 38.7614 9.23858 41 12 41ZM14 36C14 37.1046 13.1046 38 12 38C10.8954 38 10 37.1046 10 36C10 34.8954 10.8954 34 12 34C13.1046 34 14 34.8954 14 36Z" fill="white"/>
<path d="M40.6753 17.2099C39.9244 17.8842 39.0269 18.3985 38.0365 18.6992C38.6592 20.3473 39 22.1338 39 24C39 32.2843 32.2843 39 24 39C22.1338 39 20.3473 38.6592 18.6992 38.0365C18.3985 39.0269 17.8842 39.9244 17.2099 40.6753C19.3052 41.5294 21.5976 42 24 42C33.9411 42 42 33.9411 42 24C42 21.5976 41.5294 19.3052 40.6753 17.2099Z" fill="white"/>
<path d="M57.4189 31.64C57.4189 32.1923 57.8666 32.64 58.4189 32.64H59.6655C60.2178 32.64 60.6655 32.1923 60.6655 31.64V18.408H65.0844C65.6367 18.408 66.0844 17.9603 66.0844 17.408V16.36C66.0844 15.8077 65.6367 15.36 65.0844 15.36H53C52.4477 15.36 52 15.8077 52 16.36V17.408C52 17.9603 52.4477 18.408 53 18.408H57.4189V31.64Z" fill="white"/>
<path d="M70.4136 33C71.655 33 72.7968 32.672 73.8392 32.016C75.1886 31.1668 76.0373 29.9614 76.1409 28.7804C76.1637 28.521 75.9423 28.32 75.6819 28.32H73.3797C73.0854 28.32 72.8256 28.4975 72.6659 28.7447C72.1458 29.5496 71.3314 29.952 70.2227 29.952C69.3394 29.952 68.6431 29.704 68.1339 29.208C67.6326 28.712 67.3222 28 67.2029 27.072H75.3329C75.8518 27.072 76.29 26.6747 76.2961 26.1558C76.3102 24.9666 76.1357 23.908 75.7729 22.98C75.3193 21.82 74.6191 20.92 73.6721 20.28C72.7252 19.64 71.5754 19.32 70.2227 19.32C68.9495 19.32 67.8235 19.612 66.8448 20.196C65.866 20.772 65.0982 21.584 64.5411 22.632C63.9841 23.68 63.7056 24.912 63.7056 26.328C63.7056 27.624 63.9881 28.776 64.5531 29.784C65.126 30.784 65.9138 31.572 66.9164 32.148C67.927 32.716 69.0927 33 70.4136 33ZM70.3659 22.152C71.1457 22.152 71.7425 22.348 72.1563 22.74C72.578 23.132 72.8486 23.768 72.9679 24.648H67.2864C67.6286 22.984 68.6551 22.152 70.3659 22.152Z" fill="white"/>
<path d="M81.81 33C82.8047 33 83.6402 32.848 84.3166 32.544C85.0009 32.232 85.6295 31.736 86.2025 31.056V31.64C86.2025 32.1923 86.6502 32.64 87.2025 32.64H88.0432C88.5955 32.64 89.0432 32.1923 89.0432 31.64V24.72C89.0432 24.128 89.0193 23.592 88.9716 23.112C88.9239 22.632 88.7727 22.152 88.518 21.672C88.0645 20.808 87.3961 20.2 86.5128 19.848C85.6295 19.496 85.4531 19.32 83.4811 19.32C81.5 19.5 80.6395 20.1269 80 20.688C79.4539 21.1671 78.9846 21.7263 78.656 22.547C78.5575 22.7928 78.694 23.0637 78.9423 23.1555L80.1868 23.6154C80.5802 23.7607 81.0019 23.5395 81.261 23.2096C81.4541 22.9636 81.6968 22.7751 81.9891 22.644C82.5063 22.412 83.0036 22.296 83.4811 22.296C84.245 22.296 84.8139 22.44 85.1879 22.728C85.5619 23.008 85.7807 23.452 85.8444 24.06C84.6349 24.236 83.5686 24.408 82.6456 24.576C81.7225 24.736 80.9506 24.928 80.33 25.152C79.2955 25.536 78.5674 26.06 78.1457 26.724C77.724 27.38 77.5131 28.16 77.5131 29.064C77.5131 29.784 77.6762 30.444 78.0025 31.044C78.3367 31.636 78.8221 32.112 79.4587 32.472C80.1032 32.824 80.887 33 81.81 33ZM82.5023 30.432C81.9453 30.432 81.5037 30.308 81.1774 30.06C80.8512 29.804 80.6881 29.456 80.6881 29.016C80.6881 28.688 80.7915 28.408 80.9984 28.176C81.2053 27.936 81.5474 27.72 82.0249 27.528C82.3909 27.392 82.8405 27.268 83.3736 27.156C83.9147 27.036 84.7304 26.884 85.8205 26.7C85.8126 27.012 85.7887 27.356 85.7489 27.732C85.7091 28.1 85.6216 28.424 85.4863 28.704C85.3988 28.888 85.2317 29.116 84.985 29.388C84.7463 29.66 84.42 29.904 84.0062 30.12C83.6004 30.328 83.0991 30.432 82.5023 30.432Z" fill="white"/>
<path d="M91.168 31.64C91.168 32.1923 91.6157 32.64 92.168 32.64H93.4385C93.9907 32.64 94.4385 32.1923 94.4385 31.64V24.792C94.4385 24.048 94.6414 23.444 95.0472 22.98C95.461 22.508 96.006 22.272 96.6824 22.272C97.3906 22.272 97.9436 22.512 98.3415 22.992C98.7473 23.464 98.9502 24.128 98.9502 24.984V31.64C98.9502 32.1923 99.398 32.64 99.9502 32.64H101.197C101.749 32.64 102.197 32.1923 102.197 31.64V24.792C102.197 24.048 102.4 23.444 102.806 22.98C103.219 22.508 103.764 22.272 104.441 22.272C105.149 22.272 105.702 22.512 106.1 22.992C106.506 23.464 106.709 24.128 106.709 24.984V31.64C106.709 32.1923 107.156 32.64 107.709 32.64H108.955C109.507 32.64 109.955 32.1923 109.955 31.64V24.12C109.955 22.704 109.577 21.56 108.821 20.688C108.073 19.808 106.963 19.368 105.491 19.368C104.664 19.368 103.904 19.548 103.211 19.908C102.519 20.268 101.966 20.76 101.552 21.384C101.218 20.776 100.741 20.288 100.12 19.92C99.4993 19.552 98.7274 19.368 97.8044 19.368C97.0246 19.368 96.3084 19.524 95.6559 19.836C95.0034 20.14 94.4623 20.56 94.0326 21.096V20.68C94.0326 20.1277 93.5849 19.68 93.0326 19.68H92.168C91.6157 19.68 91.168 20.1277 91.168 20.68V31.64Z" fill="white"/>
<path d="M112.94 31.64C112.94 32.1923 113.387 32.64 113.94 32.64H115.186C115.738 32.64 116.186 32.1923 116.186 31.64V22.2H118.17C118.722 22.2 119.17 21.7523 119.17 21.2V20.68C119.17 20.1277 118.722 19.68 118.17 19.68H116.186V18.96C116.186 18.6 116.309 18.292 116.556 18.036C116.803 17.772 117.181 17.64 117.69 17.64H118.17C118.722 17.64 119.17 17.1923 119.17 16.64V16C119.17 15.4477 118.722 15 118.17 15H117.571C117.26 15 116.886 15.008 116.449 15.024C116.011 15.032 115.558 15.12 115.088 15.288C114.626 15.448 114.197 15.752 113.799 16.2C113.497 16.536 113.286 16.912 113.166 17.328C113.047 17.744 112.979 18.16 112.963 18.576C112.948 18.984 112.94 19.352 112.94 19.68H111.91C111.358 19.68 110.91 20.1277 110.91 20.68V21.2C110.91 21.7523 111.358 22.2 111.91 22.2H112.94V31.64Z" fill="white"/>
<path d="M121.312 31.64C121.312 32.1923 121.76 32.64 122.312 32.64H123.559C124.111 32.64 124.559 32.1923 124.559 31.64V16C124.559 15.4477 124.111 15 123.559 15H122.312C121.76 15 121.312 15.4477 121.312 16V31.64Z" fill="white"/>
<path d="M132.745 33C134.034 33 135.168 32.712 136.146 32.136C137.133 31.552 137.901 30.748 138.45 29.724C139.007 28.692 139.286 27.504 139.286 26.16C139.286 24.824 139.011 23.644 138.462 22.62C137.913 21.588 137.145 20.78 136.158 20.196C135.18 19.612 134.042 19.32 132.745 19.32C131.471 19.32 130.346 19.608 129.367 20.184C128.388 20.76 127.62 21.564 127.063 22.596C126.506 23.62 126.228 24.808 126.228 26.16C126.228 27.496 126.498 28.68 127.039 29.712C127.588 30.736 128.352 31.54 129.331 32.124C130.31 32.708 131.448 33 132.745 33ZM132.745 29.952C131.734 29.952 130.966 29.612 130.441 28.932C129.924 28.244 129.665 27.32 129.665 26.16C129.665 25.032 129.912 24.12 130.405 23.424C130.907 22.72 131.686 22.368 132.745 22.368C133.771 22.368 134.543 22.712 135.06 23.4C135.585 24.088 135.848 25.008 135.848 26.16C135.848 27.272 135.589 28.184 135.072 28.896C134.563 29.6 133.787 29.952 132.745 29.952Z" fill="white"/>
<path d="M143.247 31.9303C143.375 32.3518 143.763 32.64 144.204 32.64H145.224C145.654 32.64 146.037 32.3646 146.173 31.9563L148.762 24.192L151.35 31.9563C151.487 32.3646 151.869 32.64 152.299 32.64H153.32C153.76 32.64 154.149 32.352 154.277 31.9308L157.608 20.9708C157.803 20.3284 157.322 19.68 156.651 19.68H155.567C155.126 19.68 154.738 19.9685 154.61 20.3903L152.486 27.408L150.327 20.3862C150.198 19.9665 149.811 19.68 149.372 19.68H148.152C147.713 19.68 147.325 19.9665 147.196 20.3862L145.038 27.408L142.911 20.3847C142.785 19.9656 142.4 19.6777 141.962 19.6744L140.882 19.6663C140.208 19.6612 139.722 20.3113 139.918 20.9565L143.247 31.9303Z" fill="white"/>
</svg>
