<svg fill="white" id="Layer_1" data-name="Layer 1" xmlns="http://www.w3.org/2000/svg" viewBox="0 0 112.56 122.88"><defs><style>.cls-1{fill-rule:evenodd;}</style></defs><title>brokerage-broking-mediation</title><path class="cls-1" d="M14.45,96.35A2.43,2.43,0,1,1,12,98.78a2.43,2.43,0,0,1,2.43-2.43ZM26.28,18A12.33,12.33,0,1,1,14,30.31,12.33,12.33,0,0,1,26.28,18Zm32,33.88h1A1.67,1.67,0,0,0,61,50.2V47.49a1.67,1.67,0,0,0-1.67-1.67h-6a1.67,1.67,0,0,0-1.67,1.67V50.2a1.67,1.67,0,0,0,1.67,1.67h1l-.49,4.36.79-.33c.72-.27,1.54-.52,2.45-.76.53-.13,1.05-.25,1.57-.35l-.32-2.92Zm-36.17,10c.18-6.12.8-10.47,7-12.8,4.24-1.59,9.66-3.61,13.56-6l4.85,17.54-.1.11-.89,1.06c-.55,0-1.09,0-1.62.08a22.78,22.78,0,0,0-4.93,1,25.31,25.31,0,0,0-4.4,1.85q-1.08.57-2.1,1.2H30.28a11.74,11.74,0,0,0-1.84-1.6c-.15-.12-.31-.23-.47-.34a13.52,13.52,0,0,0-4.44-1.8q-.68-.15-1.41-.24ZM47.73,37.18c.19-1.56-4.43-7.51-5.27-10.36C40.65,23.94,40,19.38,42,16.33c.79-1.2.45-2.26.45-3.92,0-16.54,29-16.55,29,0,0,2.09-.48,2.59.66,4.23,1.9,2.75.91,7.63-.68,10.18-1,3-5.88,8.66-5.54,10.36.29,8.49-18.17,8.21-18.12,0Zm22.49,5c3.56,2.28,8.61,4.14,12.65,5.5,6.11,2,7.5,7.13,7.79,14.53a15.45,15.45,0,0,0-3.26.62c-.37.12-.72.24-1.07.38l-.56-.37c-1.15-.77-1.56-1.06-2-1.36l0,0c-1.63-1.14-3.29-2.31-5-3.28a26.88,26.88,0,0,0-6.11-2.65s-.24-.09-.25-.07l-.22-.06a32.59,32.59,0,0,0-3.79-.75q-.76-.1-1.59-.18l3.4-12.29ZM86.29,18A12.33,12.33,0,1,1,74,30.31,12.33,12.33,0,0,1,86.29,18ZM85,35.52a2.84,2.84,0,0,1-.36-.05L84,35.38l-.39-.06-.38-.08-.36-.09-.15,0V32.66l.69.06.51,0,.53,0,.54,0h1l.39,0,.31,0a1,1,0,0,0,.21-.08.25.25,0,0,0,.13-.09.18.18,0,0,0,.07-.1.39.39,0,0,0,0-.16v-.16a.32.32,0,0,0-.12-.28.38.38,0,0,0-.17-.08.66.66,0,0,0-.21,0h-.71a5.25,5.25,0,0,1-1.44-.18A3,3,0,0,1,83.42,31a2.18,2.18,0,0,1-.66-1,4.21,4.21,0,0,1-.22-1.45v-.45a3.64,3.64,0,0,1,.24-1.37,2.5,2.5,0,0,1,.72-1,3.56,3.56,0,0,1,.72-.47A2.65,2.65,0,0,1,85,25V23.94h2.26v1a9.13,9.13,0,0,1,1,.15l.19,0,.47.09.43.09.15,0v2.46l-.22,0-.65,0-.74,0-.73,0h-1l-.3,0a.65.65,0,0,0-.21.06.5.5,0,0,0-.14.1.24.24,0,0,0-.07.12.66.66,0,0,0,0,.21v.13a.69.69,0,0,0,0,.22.38.38,0,0,0,.11.14.46.46,0,0,0,.2.09,1.06,1.06,0,0,0,.33,0H87a3.73,3.73,0,0,1,.91.1,2.62,2.62,0,0,1,.77.29,2.52,2.52,0,0,1,1,1,2.78,2.78,0,0,1,.25.7,3.42,3.42,0,0,1,.09.79v.44a5.23,5.23,0,0,1-.12,1.18,2.68,2.68,0,0,1-.36.89,2.33,2.33,0,0,1-.59.62,2.63,2.63,0,0,1-.79.38l-.08,0a4.64,4.64,0,0,1-.83.18v1.17H85V35.52Zm1.29-15.37A10.16,10.16,0,1,1,76.13,30.31,10.15,10.15,0,0,1,86.29,20.15ZM25,35.52a2.84,2.84,0,0,1-.36-.05L24,35.38l-.4-.06-.38-.08-.36-.09-.15,0V32.66l.69.06.51,0,.54,0,.54,0h1l.39,0,.31,0,.22-.08a.38.38,0,0,0,.13-.09.17.17,0,0,0,.06-.1.38.38,0,0,0,0-.16v-.16a.31.31,0,0,0-.13-.28.38.38,0,0,0-.17-.08.64.64,0,0,0-.2,0h-.72a5.13,5.13,0,0,1-1.43-.18A2.87,2.87,0,0,1,23.42,31a2.27,2.27,0,0,1-.67-1,4.47,4.47,0,0,1-.22-1.45v-.45a3.64,3.64,0,0,1,.24-1.37,2.52,2.52,0,0,1,.73-1,3.08,3.08,0,0,1,.72-.47A2.68,2.68,0,0,1,25,25V23.94h2.26v1a8.51,8.51,0,0,1,1,.15l.19,0,.48.09.42.09.15,0v2.46l-.22,0-.65,0-.73,0-.74,0h-1l-.3,0a.65.65,0,0,0-.21.06.71.71,0,0,0-.14.1.35.35,0,0,0-.07.12.66.66,0,0,0,0,.21v.13a.48.48,0,0,0,0,.22.28.28,0,0,0,.1.14.53.53,0,0,0,.2.09,1.09,1.09,0,0,0,.34,0H27a3.79,3.79,0,0,1,.91.1,2.66,2.66,0,0,1,.76.29,2.52,2.52,0,0,1,1,1,2.8,2.8,0,0,1,.26.7,4.07,4.07,0,0,1,.08.79v.44a5.92,5.92,0,0,1-.11,1.18,2.49,2.49,0,0,1-.37.89,2.33,2.33,0,0,1-.59.62,2.52,2.52,0,0,1-.79.38l-.07,0a5,5,0,0,1-.84.18v1.17H25V35.52Zm1.29-15.37A10.16,10.16,0,1,1,16.12,30.31,10.16,10.16,0,0,1,26.28,20.15Zm59,55a7.88,7.88,0,0,1,.08-1.31l-4.79-3.2c-.68-.46-1.44-1-2.19-1.52-2.73-1.9-5.53-3.87-8.55-4.66a23,23,0,0,0-5.44-.75,18.69,18.69,0,0,0-5,.54,13,13,0,0,0-2.75,1.05,9.81,9.81,0,0,0-2.12,1.5l-3.21,3.82a1.46,1.46,0,0,1-.41.48L42,81.6a3.81,3.81,0,0,0,.76,1.69,3.71,3.71,0,0,0,1.64,1.16,5.41,5.41,0,0,0,2.31.29,7.68,7.68,0,0,0,4-1.68l2.46-2c.62-.51,1.14-1,1.66-1.45a22.4,22.4,0,0,1,3.46-2.79c2.76-1.65,5.51-1.7,8.23,2.86l13.93,25.13h4.74V75.11Zm1.12-4a4.84,4.84,0,0,1,.74-.83,7.53,7.53,0,0,1,5.19-1.63h12.11a9.73,9.73,0,0,1,6,1.55c1.58,1.23,2.33,3.09,2,5.76l-2.68,27.68a9.66,9.66,0,0,1-2,5.74,6.17,6.17,0,0,1-5.22,2H91.69a5.53,5.53,0,0,1-3.9-1.2,7.26,7.26,0,0,1-2-2.57H82.05a6.47,6.47,0,0,1,.07,4.14,6.72,6.72,0,0,1-2.26,3.2,7.67,7.67,0,0,1-3.55,1.57,7,7,0,0,1-3.81-.42A9.86,9.86,0,0,1,68,119a7.87,7.87,0,0,1-4.79-.22,9.64,9.64,0,0,1-5.1,3.17,9.35,9.35,0,0,1-6.06-.88,9,9,0,0,1-2.1,1.23,7.83,7.83,0,0,1-3.25.6,8.83,8.83,0,0,1-6-2.19A18,18,0,0,1,37.32,116l-6-10.47H26.66a8.07,8.07,0,0,1-1.38,3.32l-.06.09a6.16,6.16,0,0,1-5.34,2.29H9.72a5.16,5.16,0,0,1-5.09-1.73c-1.2-1.38-2-3.63-2.36-6.93l0-.12-2.1-26c-.42-2.8,0-4.79,1.17-6.15a6.57,6.57,0,0,1,5-2.08h13a9.21,9.21,0,0,1,5.1,1.17h0a5.18,5.18,0,0,1,2.22,3H35.4A24.79,24.79,0,0,1,41.94,69a17.53,17.53,0,0,1,7.5-.6l3-3.56.12-.12a12.19,12.19,0,0,1,2.77-2,15.22,15.22,0,0,1,3.37-1.28,21.41,21.41,0,0,1,5.75-.63,26.2,26.2,0,0,1,6.11.84h0c3.49.91,6.51,3,9.44,5.08.7.49,1.4,1,2.15,1.48l4.26,2.84Zm-62.3,3.1a1.29,1.29,0,0,1-.06-.4v-.11a2.67,2.67,0,0,0-1.15-1.92,6.55,6.55,0,0,0-3.56-.71H6.41a3.89,3.89,0,0,0-2.92,1.07c-.61.73-.83,2-.53,4v.13l2.1,26.07c.29,2.7.87,4.43,1.69,5.38a2.59,2.59,0,0,0,2.61.78,1.06,1.06,0,0,1,.25,0H20a3.52,3.52,0,0,0,3-1.2l.05-.06a7.56,7.56,0,0,0,1.08-4.23V74.19Zm2.83,28.53h5.2a1.42,1.42,0,0,1,1.26.77l6.38,11.13a16.2,16.2,0,0,0,2.8,4,6.13,6.13,0,0,0,4.2,1.46,4.87,4.87,0,0,0,2.1-.38,6,6,0,0,0,1.2-.68l-4.15-7.78a1.41,1.41,0,1,1,2.49-1.33l4.52,8.46a6.1,6.1,0,0,0,8.12-1.42L54.55,106.7a1.41,1.41,0,0,1,2.38-1.52L63.79,116a5.31,5.31,0,0,0,3.46.3,7.15,7.15,0,0,0,3.16-2.05L64.19,102.5a1.42,1.42,0,1,1,2.5-1.33l6.44,12.11a4.07,4.07,0,0,0,2.73.46,4.84,4.84,0,0,0,2.24-1,3.9,3.9,0,0,0,1.33-1.86,3.78,3.78,0,0,0-.21-2.75,1.36,1.36,0,0,1-.11-.65,1.43,1.43,0,0,1-.81-.94L64.18,81.08c-1.57-2.63-3-2.69-4.35-1.88a20.27,20.27,0,0,0-3,2.45c-.62.56-1.24,1.13-1.76,1.55l-2.5,2.07A10.45,10.45,0,0,1,47,87.56a8.14,8.14,0,0,1-3.53-.47,6.6,6.6,0,0,1-2.85-2,6.76,6.76,0,0,1-1.45-3.76,1.38,1.38,0,0,1,.41-1.12l7.63-9.08a14,14,0,0,0-4.41.62,23,23,0,0,0-6.07,3.19,1.42,1.42,0,0,1-.88.3H26.94v27.51Zm70.79-6.37a2.43,2.43,0,1,1-2.44,2.43,2.43,2.43,0,0,1,2.44-2.43Z"/></svg>