<?xml version="1.0" encoding="utf-8"?><svg fill="white" version="1.1" id="Layer_1" xmlns="http://www.w3.org/2000/svg" xmlns:xlink="http://www.w3.org/1999/xlink" x="0px" y="0px" viewBox="0 0 71.31 122.88" style="enable-background:new 0 0 71.31 122.88" xml:space="preserve"><g><path d="M12.47,0h46.36c3.43,0,6.55,1.4,8.81,3.66c2.26,2.26,3.66,5.38,3.66,8.81v97.94c0,3.43-1.4,6.55-3.66,8.81 c-2.26,2.26-5.38,3.66-8.81,3.66H12.47c-3.43,0-6.55-1.4-8.81-3.66C1.4,116.96,0,113.84,0,110.41V12.47c0-3.43,1.4-6.55,3.66-8.81 C5.92,1.4,9.04,0,12.47,0L12.47,0z M28.93,113c-0.83,0-1.5-0.67-1.5-1.5c0-0.83,0.67-1.5,1.5-1.5h13.72c0.83,0,1.5,0.67,1.5,1.5 c0,0.83-0.67,1.5-1.5,1.5H28.93L28.93,113z M27.65,7.16c1.31,0,2.38,1.07,2.38,2.38c0,1.31-1.07,2.38-2.38,2.38 c-1.31,0-2.38-1.07-2.38-2.38C25.27,8.23,26.34,7.16,27.65,7.16L27.65,7.16z M35.65,7.16c1.31,0,2.38,1.07,2.38,2.38 c0,1.31-1.07,2.38-2.38,2.38c-1.32,0-2.38-1.07-2.38-2.38C33.27,8.23,34.34,7.16,35.65,7.16L35.65,7.16z M43.65,7.16 c1.31,0,2.38,1.07,2.38,2.38c0,1.31-1.07,2.38-2.38,2.38c-1.32,0-2.38-1.07-2.38-2.38C41.27,8.23,42.34,7.16,43.65,7.16L43.65,7.16 z M3,99.29h65.31V19.21H3V99.29L3,99.29z M68.31,102.29H3v8.12c0,2.6,1.07,4.97,2.78,6.69c1.72,1.72,4.09,2.78,6.69,2.78h46.36 c2.6,0,4.97-1.07,6.69-2.78c1.72-1.72,2.78-4.09,2.78-6.69V102.29L68.31,102.29z M3,16.21h65.31v-3.74c0-2.6-1.07-4.97-2.78-6.69 C63.81,4.06,61.44,3,58.83,3H12.47C9.87,3,7.5,4.06,5.78,5.78C4.06,7.5,3,9.87,3,12.47V16.21L3,16.21z"/></g></svg>