<?xml version="1.0" encoding="utf-8"?><svg fill="white" version="1.1" id="Layer_1" xmlns="http://www.w3.org/2000/svg" xmlns:xlink="http://www.w3.org/1999/xlink" x="0px" y="0px" viewBox="0 0 88.65 122.88" style="enable-background:new 0 0 88.65 122.88" xml:space="preserve"><style type="text/css">.st0{fill-rule:evenodd;clip-rule:evenodd;}</style><g><path class="st0" d="M88.65,3.62v115.63c0,1.99-1.63,3.62-3.62,3.62H3.62c-1.99,0-3.62-1.63-3.62-3.62V3.62C0,1.63,1.63,0,3.62,0 h81.4C87.02,0,88.65,1.63,88.65,3.62L88.65,3.62z M44.32,109.86c2.29,0,4.15,1.86,4.15,4.15c0,2.29-1.86,4.15-4.15,4.15 c-2.29,0-4.15-1.86-4.15-4.15C40.18,111.72,42.03,109.86,44.32,109.86L44.32,109.86z M83.74,6.46v98.75H5.42V6.46H83.74L83.74,6.46 z"/></g></svg>