<?xml version="1.0" encoding="utf-8"?>
<!-- Generator: Adobe Illustrator 25.2.1, SVG Export Plug-In . SVG Version: 6.00 Build 0)  -->
<svg version="1.1" id="Layer_1" xmlns="http://www.w3.org/2000/svg" xmlns:xlink="http://www.w3.org/1999/xlink" x="0px" y="0px"
	 viewBox="0 0 477.9 214.3" style="enable-background:new 0 0 477.9 214.3;" xml:space="preserve">
<style type="text/css">
	.st0{fill:#EC3575;}
	.st1{fill:#070102;}
	.st2{fill:#EB3675;}
</style>
<path class="st0" d="M168.8,213.4c1.3-2.4-1.1-1.7-1.8-1.9c-6.3-1.5-12.5-3.6-18.1-6.8c-24.7-14.3-36-36.4-35.4-64.2
	c0.7-27.9,13-49.8,38.7-62.2c21.8-10.6,43.5-8.6,64.1,4.6c0.9,0.6,1.7,2.1,2.9,1.4c1.2-0.6,0.5-2.1,0.6-3.1c0.2-6.5,0.2-6.5,6.7-6.5
	c19.2,0,38.3-0.1,57.5,0.1c3.8,0,4.9-0.9,4.7-4.7c-0.4-9.4,0.2-18.7,3.3-27.6c6.1-17.7,19.5-27.2,36.9-31.7
	c11.5-3,23.1-2.5,34.7-0.2c2.5,0.5,3.2,1.3,2.7,3.9c-1.7,8.1-3.1,16.3-4.4,24.5c-0.4,2.7-1.4,3.2-3.9,2.7c-5.4-1.1-11-1.2-16.3,0.2
	c-8.9,2.3-14.5,7.7-16,17c-0.7,4.1-0.6,8.3-0.8,12.4c-0.1,2.7,0.9,3.4,3.4,3.3c8.3-0.1,16.7,0.1,25-0.1c3.2-0.1,3.9,1,3.9,4
	c-0.2,7.7-0.2,15.3,0,23c0.1,3-0.8,4.1-3.9,4c-8-0.2-16,0.1-24-0.2c-3.5-0.1-4.4,0.9-4.4,4.4c0.1,31.6,0.1,63.3,0.1,94.9
	c0,1.2-0.1,2.3,0,3.5c0.1,1.7-0.7,2.3-2.4,2.3c-10.5,0-21,0-31.5,0c-1.7,0-2.4-0.7-2.4-2.4c0-1.2,0-2.3,0-3.5c0-31.1,0-62.3,0-93.4
	c0-6.4,0.7-5.7-6-5.8c-7.8,0-15.7,0.2-23.5-0.1c-3.5-0.1-4.4,0.9-4.4,4.4c0.1,31.5,0.1,62.9,0.1,94.4c0,1-0.1,2,0,3
	c0.3,2.7-1,3.4-3.5,3.3c-9.2-0.1-18.3-0.2-27.5,0c-3.3,0.1-4.4-1-4.1-4.2c0.1-1.8,1.1-4.5-0.7-5.5c-1.5-0.8-2.9,1.6-4.4,2.6
	c-5.8,3.7-11.9,6.6-18.6,8.1c-1.1,0.2-1.1,0.3-2.1,1.9c-0.7,0-1.3,0-2,0c0.2-0.5,0.1-0.9-0.5-0.9s-0.7,0.4-0.5,0.9c-6,0-12,0-18,0
	c-0.2-0.3-0.5-0.8-0.7-0.8c-0.5,0-0.5,0.4-0.3,0.8C170.8,213.4,169.8,213.4,168.8,213.4z M218.3,142.5c0-5.7,0-11.3,0-17
	c0-2.1-0.4-3.8-1.7-5.5c-9.7-12-28.4-17.8-42.8-13c-18.4,6.1-28.6,27.3-22.4,47.2c4.3,14,13.9,22.7,28.3,24.8
	c14.9,2.2,27.5-2.8,37.2-14.5c1.3-1.5,1.4-3.3,1.4-5.1C218.3,153.8,218.3,148.1,218.3,142.5z"/>
<path class="st0" d="M2.9,14.6c11.5,0,23-0.1,34.5-0.1c33.8,0,67.6,0,101.4,0c6.5,0,5.8-0.6,5.8,6c0,7.3,0,14.6,0,22
	c0,5.5,0,5.5-5.7,5.5c-13.8,0-27.6,0.2-41.5-0.1c-3.9-0.1-4.6,1.1-4.6,4.8c0.1,50.6,0.1,101.2,0.1,151.8c0,6.8,0.9,5.9-6.2,6
	c-8.5,0-17,0-25.5,0c-7.1,0-6.2,0.9-6.2-6c0-50.3,0-100.5,0-150.8c0-5.9,1-5.7-5.6-5.7c-13.7,0-27.3,0-41,0c-1.8,0-3.6-0.2-5.5-0.3
	C2.9,36.5,2.9,25.6,2.9,14.6z"/>
<path class="st0" d="M412.7,2.6c1.4,1.7,3.6,1.2,5.4,1.8c11.3,4,17.8,15.1,15.4,26.9c-2.4,11.6-13.6,19.4-26.1,18.2
	c-11.7-1.2-20.6-10.6-20.9-22.2c-0.3-11,5.7-19.4,16.3-23c1.3-0.4,3.1,0,3.9-1.7C408.7,2.6,410.7,2.6,412.7,2.6z"/>
<path class="st1" d="M171.8,213.4c-0.3-0.4-0.2-0.8,0.3-0.8c0.2,0,0.5,0.5,0.7,0.8C172.5,213.4,172.1,213.4,171.8,213.4z"/>
<path class="st1" d="M190.8,213.4c-0.2-0.5-0.1-0.9,0.5-0.9s0.7,0.4,0.5,0.9C191.5,213.4,191.1,213.4,190.8,213.4z"/>
<path class="st0" d="M428.4,143c0,20.8,0,41.6,0,62.4c0,4.9,0,4.9-4.8,4.9c-8.8,0-17.7,0-26.5,0c-5.2,0-5.2,0-5.2-5.1
	c0-31.3,0-62.6,0-93.9c0-1.2-0.1-2.3,0-3.5c0.2-2-0.8-2.6-2.6-2.6c-3.8,0.1-7.7-0.1-11.5,0c-2.1,0.1-3-0.6-3-2.9
	c0.1-8.3,0.1-16.7,0-25c0-2.6,1.1-3,3.3-3c15.7,0.1,31.3,0.1,47,0c3.8,0,3.3,2.2,3.3,4.5C428.4,100.3,428.4,121.6,428.4,143z"/>
<path class="st0" d="M455.8,197c0-0.7,0-1.3,0-2c0-4.5,3.3-6.5,7.3-4.4c1.9,1,2.8,3.5,1.5,4.5c-4,2.8-1.2,4.8,0.2,7.1
	c0.3,0.5,1.1,1.1,0.6,1.7c-0.9,0.9-1.4-0.2-1.9-0.8c-0.3-0.4-0.5-0.9-0.9-1.2c-1.5-1.4-1.8-4.7-4.2-4.1c-1.7,0.4-0.4,3.2-0.8,4.9
	c-0.1,0.6,0,1.5-1,1.3c-0.9-0.1-0.7-1-0.7-1.6C455.8,200.7,455.8,198.9,455.8,197z M463.1,193.6c-0.5-1.5-1.9-1.8-3.4-1.8
	c-1.4,0-2,0.7-2,2.1c0,1.9,1.2,2.1,2.6,2C461.6,195.7,462.9,195.5,463.1,193.6z"/>
<path class="st2" d="M460.4,210.4c-7.4,0-13.4-6-13.4-13.4c0-7.4,6-13.4,13.4-13.4c7.4,0,13.4,6,13.4,13.4
	C473.8,204.3,467.8,210.4,460.4,210.4z M460.4,185.5c-6.3,0-11.5,5.2-11.5,11.5s5.2,11.5,11.5,11.5c6.3,0,11.5-5.2,11.5-11.5
	S466.7,185.5,460.4,185.5z"/>
<circle class="st0" cx="410.3" cy="26.1" r="23.8"/>
</svg>
